DEAD MAN RUNNING 2009 DVDRip XviD

Format                           : AVI
Format/Info                      : Audio Video Interleave
File size                        : 407 MiB
Duration                         : 1h 27mn
Overall bit rate                 : 648 Kbps
Writing application              : MEncoder Sherpya-SVN-r27811-4.2.5
Writing library                  : MPlayer

Video
ID                               : 0
Format                           : MPEG-4 Visual
Format profile                   : AdvancedSimple@L5
Format settings, BVOP            : No
Format settings, QPel            : No
Format settings, GMC             : No warppoints
Format settings, Matrix          : Default (H.263)
Codec ID                         : XVID
Codec ID/Hint                    : XviD
Duration                         : 1h 27mn
Bit rate                         : 511 Kbps
Width                            : 480 pixels
Height                           : 266 pixels
Display aspect ratio             : 16:9
Frame rate                       : 25.000 fps
Resolution                       : 24 bits
Colorimetry                      : 4:2:0
Scan type                        : Progressive
Bits/(Pixel*Frame)               : 0.160
Stream size                      : 321 MiB (79%)
Writing library                  : XviD 1.1.2 (UTC 2006-11-01)

Audio
ID                               : 1
Format                           : MPEG Audio
Format version                   : Version 1
Format profile                   : Layer 3
Codec ID                         : 55
Codec ID/Hint                    : MP3
Duration                         : 1h 27mn
Bit rate mode                    : Variable
Bit rate                         : 124 Kbps
Channel(s)                       : 2 channels
Sampling rate                    : 44.1 KHz
Resolution                       : 16 bits
Stream size                      : 77.7 MiB (19%)
Alignment                        : Aligned on interleaves
Interleave, duration             : 26 ms (0.65 video frame)
Interleave, preload duration     : 134 ms
Writing library                  : LAME3.98

A loan shark gives ex-con Nick a period of 24 hours in order to pay back the money he owes. Up against it, Nick involves his best mate on a multi-part mission in order to raise the cash before it's too late for them both.
 
http://www.imdb.com/title/tt1311699/

PLEASE SEED AND ENJOY THANKS

screens
 
http://img269.imageshack.us/img269/199/dmrxvidviceavithumbs201.jpg